<svg xmlns="http://www.w3.org/2000/svg" viewBox="0 0 1920 1080" fill="trensprent" stroke="black" style="enable-background:new 0 0 1920 1080" xml:space="preserve"><path d="M766.74 316.9h5.11c-.51 13.78-2.56 26.68-11.91 37.36-2.1 2.4-4.08 4.9-6.33 7.15-2.06 2.06-2.06 3.83-.85 6.51 5.32 11.74 12.8 22.24 18.86 33.55 1.78 3.33 5.68 1.12 8.59 1.4 2.61.25 2.2-2.05 2.64-3.84 1.96-7.97 6.46-14.81 10.48-21.79 3.73-6.46 6.8-13.28 10.94-19.54 1.55-2.34.85-5.38-1.73-7.52-9.54-7.93-14.86-18.33-17.31-30.3-.91-4.46-2.14-8.94-1.22-13.75 4.97-1.02 5.35 2.41 5.74 5.7 1.23 10.46 4.31 20.1 12.68 27.14 3.84 3.23 8.07 6.03 12.22 8.88 3.68 2.53 7.21.51 10.54-.91 8.26-3.52 16.63-6.8 24.39-11.43 8.78-5.23 13.65-12.47 14.37-22.97.44-6.43.73-12.84.81-19.27.02-1.62.23-3.08 2.16-3.3 2.05-.23 1.68 1.34 1.93 2.65 1.65 8.72.96 17.53 1.1 26.3.02 1.6-.55 3.23.24 4.8 9.98-3.92 10.89-10.11 4.87-20.92-1.38-2.47-3.18-4.63-1.52-8.48 8.01 3.37 8.99 12.3 14.78 18.14 11.5-15.64 8.14-33.9 9.43-51.24 2.98-.82 4.13.48 4.1 2.86-.09 6.58.4 13.1-.46 19.76-.67 5.18.12 10.62-.46 16.04-1.45 13.5-6.6 24.29-18.98 31.05-12.49 6.82-24.62 14.32-37.24 20.88-7.66 3.99-15.98 6.7-23.95 10.11-3.88 1.66-7.93 4.41-7.61 8.64.3 4 5.28 4.16 8.62 4.8 6.19 1.18 12.44 1.7 17.52-3.38.44-.44 1.04-.8 1.63-1 .42-.15.96.03 1.44.07-.01 5.82-6.63 11.71-13.55 11.88-5.83.14-11.67.19-17.49-.1-2.99-.15-4.98 1.23-6.04 3.43-2.86 5.95-4.89 12.24-6.42 18.66-.35 1.48.45 2.51 2.12 3.28 2.99-3.15 4.71-7.38 8.76-9.94 5.62-3.55 11.72-5.08 17.99-6.25 3.57-.66 5.4 1.78 3.61 4.67-4.62 7.49-8.27 15.7-15.73 21.71 6.32 4.86 8.02 11.42 7.18 18.78-.66 5.78 3.3 9.38 6.22 13.37 3.87 5.3 8.43 10.11 12.12 15.52 2.71 3.97 4.55 10.36-.13 15.23-.34.35-.91.72-.94 1.11-.63 9.77-8.58 8.67-14.72 9.49-5.25.7-10.72.6-16.46-2.83 3.62 16.44 6.36 31.83 7.81 47.39.23 2.51 1.18 3.25 3.48 3.8 7.01 1.69 12.04 6.2 15.51 12.34 1.39 2.45 3.07 3.89 5.74 4.86 4.58 1.65 8.49 4.66 12.57 7.28 9.62 6.17 8.39 15.67 7.49 24.94-.64 6.64-1.94 13.22-2.64 19.86-1.1 10.56-2.72 21.06-3.81 31.6-1.03 9.94-2.28 19.86-3.28 29.81-1.11 11.05-2.65 22.05-3.9 33.09-1.09 9.58-1.99 19.19-3.07 28.77-.98 8.77-2.46 17.47-3.17 26.29-.28 3.54.11 6.58 1.66 9.61 2.87 5.62 2.23 9.93-2.21 14.52-4.55 4.7-10.36 7.2-16.42 9.17-11.3 3.67-23.07 4.97-34.8 5.75-23.69 1.58-47.33 1.62-70.09-6.79-2.33-.86-4.57-2.03-6.77-3.2-7.72-4.08-11.82-13.14-9.8-21.75 1.44-6.16.32-12.34-.63-18.29-1.22-7.59-1.47-15.27-2.74-22.83-2.19-13.04-2.98-26.26-4.66-39.38-1.29-10.05-2.45-20.18-3.41-30.3-.96-10.06-2.58-20.06-3.69-30.11-.64-5.84-1.3-11.67-2.07-17.5-1.46-11.06-2.27-22.21-3.12-33.35-.54-7.17 3.48-12.1 9.17-15.57 4.69-2.86 9.56-5.51 14.89-7.17 1.65-.51 3.5-1.32 4.4-3.01 2.91-5.49 7.78-8.18 13.54-9.36 3.1-.64 3.69-2.28 3.76-5.16.21-8.01-.74-16.01.16-24.02 2.07-18.38 2.92-36.81 3.3-55.31.17-8.56 2.25-17.26 6.02-25.73-12.17-2.68-14.34-12.1-15.35-22.42-.31-3.16 1.73-4.61 3.87-4.75 7.36-.48 14.86-.91 20.47 5.55 1.09 1.26 2.25 3.19 4.53 1.84 2.18-1.29 2.79-3.45 2.13-5.59-2.96-9.63-2.61-11.41-13.23-11.06-3.66.12-7.35-.18-10.99.09-7.92.58-12.27-4.05-16.01-10.25 1.54-1.28 3.2-1.25 4.17-.3 7.64 7.58 15.7 4.41 23.78 1.3-6.19-8.52-13.35-15.15-23.73-18.68-9.98-3.39-18.88-9.55-28.19-14.63-5.5-3.01-10.66-6.64-16.28-9.34-8.73-4.21-13.58-11.46-16.33-20.11-4.86-15.24-2.8-31.06-2.88-46.68 0-.6.39-1.24.69-1.8.13-.25.52-.35 1.06-.69 3 1.95 2.66 5.31 2.84 8.14.36 5.82.37 11.67.22 17.5-.22 8.71 2.67 16.43 6.95 23.78.73 1.26 1.75 1.98 2.89 1.7 4.57-5.79 5.84-13.76 13.14-17.62 1.86 3.13.56 5.27-.4 7.48-1.41 3.24-3.76 6.03-3.72 9.93.09 7.55 1.14 9.21 8.83 12.16V301.1c4.3-.55 4.28 1.82 4.24 4.32-.1 7.72.64 15.37 2.04 22.97 1.21 6.57 4.38 11.71 10.13 15.19.55.34 1.18.56 1.72.91 10.13 6.49 12.19 6.8 20.17-2.41 9.42-10.87 19.34-21.5 22.31-36.7 2.13-10.91 1.46-21.3-1.55-31.94 3.37-1.26 5.28.07 6.19 2.99 1.06 3.4 2 6.8 2.02 10.46.05 10.59.32 21.19-1.59 32.5 9.73-4.64 14.5-14.05 22.93-18.73.13 4.89-2.7 7.63-5.21 10.6-1.41 1.66-4.04 2.77-3.1 5.74-1.94-.74-2.59 1-3.63 1.93-2.95 2.63-5.62 5.54-8.57 8.19-8.81 7.91-17.54 15.97-23.95 26.06 5.73 6.12 5.72 5.88 9.82 5.81 3.06-.05 3.94-2.74 5.92-4.04 7.17-4.71 13.57-10.14 16.51-18.69 2.17-6.29 2.47-12.91 3.78-19.36z"/></svg>