<svg viewBox="0 0 184 40" xmlns="http://www.w3.org/2000/svg">
    <path d="M80.877 1.388c.27-.612.674-.766 1.357-.766h.755v6.617h1.46V.622h.902c.632 0 1.201.072 1.201 1.045v.238h.476L87.36 0h-6.836l-.332 1.905h.456l.227-.517h.002Zm8.814-.31v6.171h1.47V3.893h3.501V7.25h1.47V1.43c0-.673.124-.87.301-1.087l.125-.155V0h-2.652v.384l.3.083c.395.114.456.248.456.61v2.196h-3.5V1.429c0-.673.124-.87.3-1.087l.125-.155V0h-2.652v.384l.3.083c.395.114.456.248.456.61Zm9.983 6.171V1.078c0-.363-.063-.497-.457-.611l-.3-.083V0h5.499l-.331 1.905h-.476v-.238c0-.973-.57-1.045-1.202-1.045h-1.264v2.63h2.051v.62h-2.051v2.756h3.087v.621h-4.556Zm-75.298 7.215-7.884 18.929-6.064-15.395c-.55-1.377-1.25-3.188-1.325-3.383l-.007-.018-.05-.133H1v1.675l.168.032c2.83.55 2.83.887 2.83 2.497v20.887H6.41V18.694l8.441 20.732.053.13h1.648L25.16 18.89l.036 20.666h4.04V19.704c0-1.575.337-2.59.62-3.163.295-.602.596-.854.598-.855l.114-.092-.393-1.128h-5.798l-.001-.002Zm43.126 22.308c4.48 0 7.266-2.544 7.294-2.57l.211-.198.684 1.514-.061.096c-.036.054-2.923 4.386-9.387 4.386-3.43 0-6.642-1.175-9.044-3.308-2.642-2.346-4.038-5.683-4.038-9.404s1.368-7.098 3.851-9.509c2.496-2.424 6.011-3.758 9.898-3.758 2.889 0 5.617.732 7.423 1.218l.154.041v6.31h-2.043v-.208c0-1.364-.578-2.64-1.629-3.59-1.142-1.034-2.71-1.58-4.534-1.58-5.236 0-8.893 4.113-8.893 10.002 0 3.134 1.02 5.808 2.95 7.733 1.826 1.822 4.37 2.825 7.164 2.825Zm115.885-22.307h-7.776v1.802l.187.018c2.846.282 2.846.998 2.846 2.569v13.998c-.342-.467-.745-.99-1.117-1.447l-14.909-16.87-.062-.07h-5.333v1.676l.17.031c2.355.428 2.864 1.055 2.864 3.532v19.852h2.413V20.23l16.69 19.44.062.073h1.635V19.335c0-2.873 2.302-3.546 2.4-3.573l.188-.052-.259-1.245h.001Zm-142.217 0h1.836l.053.133 9.767 24.958H48.46l-3.288-8.744c-3.224-.86-6.425-.831-7.724-.772l-3.636 9.516h-2.724L41.17 14.465Zm-2.219 13.95c2.318 0 4.262.305 5.536.577l-3.302-8.78-3.137 8.22c.315-.012.618-.017.903-.017Zm49.63-13.95h-1.835L76.664 39.556h2.724l2.85-7.461c1.047-.389 4.5-1.55 8.307-1.55h.102l3.338 8.877.051.135H98.4l-9.766-24.959-.052-.132v-.002Zm-1.819 5.75 3.276 8.71c-1.278.058-4.198.283-7.028 1.15l.327-.856 3.425-9.005Zm60.187-5.75h1.838l.052.133 9.766 24.958h-4.364l-.051-.135-3.229-8.586c-3.256-1.442-6.337-1.33-7.578-1.204l-3.791 9.925h-2.725l10.082-25.091Zm-1.961 13.461c2.219 0 4.014.43 5.185.819v-.001l-3.208-8.532-2.955 7.742c.328-.019.657-.028.978-.028Zm-28.465 4.036-.096.63-.352 2.299c-.068.505-.195.918-.379 1.24a2.279 2.279 0 0 1-.671.758 2.22 2.22 0 0 1-.931.362 7.524 7.524 0 0 1-1.189.086h-7.61V19.333c0-1.577.308-2.593.567-3.168.265-.591.535-.845.546-.856h.001l.109-.096-.288-.75h-7.713v1.673l.166.034c2.572.52 2.572.785 2.572 2.496v20.888h16.406v-7.593h-1.138Zm19.114.055.095-.181.002.002 1.719.882-2.934 6.756h-14.283v-20.82c0-1.709 0-1.97-2.563-2.49l-.166-.034v-1.668h7.688l.286.748-.109.095c-.002.001-.275.254-.544.854-.258.572-.565 1.586-.565 3.157v17.936h5.287c3.001 0 3.833-.992 6.087-5.237Z" fill="#CB171A"/>
</svg>
