<svg viewBox="0 0 56 40" fill="none" xmlns="http://www.w3.org/2000/svg">
  <path d="M55.169 16.827a27.261 27.261 0 0 0-.481-3.952C53.66 7.601 50.68 3.681 49.68 2.365l-.117-.155a58.4 58.4 0 0 0-2.751-.934C45.549.878 44.525.6 43.646.41a19.348 19.348 0 0 0-1.588-.272l-.077-.01A11.53 11.53 0 0 0 40.431 0c-.171 0-.254.007-.254.007s3.791 2.228 6.75 5.434c.925 1.001 1.736 1.907 2.463 2.964 1.591 2.314 2.707 4.779 3.211 6.502.62 2.113.935 4.398.926 6.383-.015 3.225-.673 5.705-.673 5.705l1.28-1.17s.672-2.35.937-5.228c.109-1.198.157-2.481.099-3.77h-.001ZM9.267 34.559c-.924-1.001-1.735-1.907-2.462-2.964-1.59-2.314-2.706-4.779-3.211-6.502-.62-2.113-.936-4.398-.926-6.383.015-3.225.673-5.705.673-5.705l-1.28 1.17s-.673 2.35-.937 5.228a28.024 28.024 0 0 0-.1 3.77c.06 1.331.233 2.669.482 3.95 1.027 5.275 4.008 9.195 5.008 10.51v.001l.117.154c.973.362 1.928.675 2.75.934 1.263.398 2.287.678 3.167.87.645.14 1.133.208 1.588.271l.077.01c.764.107 1.273.127 1.55.127.171 0 .253-.008.253-.008s-3.79-2.227-6.75-5.432h.001Zm20.988-12.19 6.326-15.19h5.907l.32.92s-1.398 1.118-1.398 4.514V33.83h-3.86l-.011-6.444-.03-16.774-.055.132v-.128l-5.377 12.91-4.293 10.305h-1.478l-6.174-15.163-3.365-8.264v23.472h-2.162v-.045h-.007V11.495c0-1.917-.16-2.317-3.237-2.916v-1.41h8.328s.802 2.082 1.442 3.683l3.475 8.823 3.267 8.295.024.06 2.358-5.661Z" fill="#000"/>
</svg>
