<svg width="26" height="20" viewBox="0 0 26 20" fill="none" xmlns="http://www.w3.org/2000/svg">
<path d="M19 10.2481C17.2257 10.2481 15.7223 7.5799 13 7.5799C10.2777 7.5799 8.77427 10.2481 7 10.2481V10.4919C8.77427 10.4919 10.2777 13.16 13 13.16C15.7223 13.16 17.219 10.4919 19 10.4919V10.2481Z" fill="black"/>
<path fill-rule="evenodd" clip-rule="evenodd" d="M26 1C24.4937 1 23.3606 1.81687 22.3483 2.54664C21.531 3.13579 20.7925 3.66817 20 3.66817V3.91196C20.7925 3.91196 21.531 4.44435 22.3483 5.0335C23.3606 5.76327 24.4937 6.58014 26 6.58014V1Z" fill="black"/>
<path fill-rule="evenodd" clip-rule="evenodd" d="M0 1C1.5063 1 2.63942 1.81687 3.65172 2.54664C4.46896 3.13579 5.20745 3.66817 6 3.66817V3.91196C5.20745 3.91196 4.46896 4.44435 3.65172 5.0335C2.63942 5.76327 1.5063 6.58014 0 6.58014V1Z" fill="black"/>
<path fill-rule="evenodd" clip-rule="evenodd" d="M26 14C24.4937 14 23.3606 14.8169 22.3483 15.5466C21.531 16.1358 20.7925 16.6682 20 16.6682V16.912C20.7925 16.912 21.531 17.4443 22.3483 18.0335C23.3606 18.7633 24.4937 19.5801 26 19.5801V14Z" fill="black"/>
<path fill-rule="evenodd" clip-rule="evenodd" d="M0 14C1.5063 14 2.63942 14.8169 3.65172 15.5466C4.46896 16.1358 5.20745 16.6682 6 16.6682V16.912C5.20745 16.912 4.46896 17.4443 3.65172 18.0335C2.63942 18.7633 1.5063 19.5801 0 19.5801V14Z" fill="black"/>
</svg>
