<svg xmlns="http://www.w3.org/2000/svg" width="308.298" height="90.396" viewBox="0 0 308.298 90.396"><g transform="translate(-21.78 -14.17)"><g transform="translate(123.147 30.854)"><path d="M212.5,69.679c0-13.378,8.568-24.119,23.726-24.119a23.99,23.99,0,0,1,18.65,9.03l-6.856,5.735a14.953,14.953,0,0,0-11.794-5.931c-7.972,0-14.037,5.931-14.037,15.291,0,8.7,5.8,14.962,14.17,14.962a15.138,15.138,0,0,0,11.794-5.931l6.787,5.868a23.4,23.4,0,0,1-18.586,8.833C223.305,93.405,212.5,85.1,212.5,69.679Z" transform="translate(-212.5 -45.56)" fill="#0679ab"/><path d="M309.173,46.68h8.961l17.4,46.793H325.84l-3.231-9.36H304.681l-3.162,9.36H291.83ZM319.983,76.2l-6.261-18.321h-.133L307.328,76.2Z" transform="translate(-249.667 -46.085)" fill="#0679ab"/><path d="M373.69,86.1l5.6-6.851c3.492,3.954,7.972,5.868,11.666,5.868,4.48,0,6.654-2.041,6.654-4.943,0-3.428-2.44-4.677-8.105-6.654-7.117-2.44-14.17-5.666-14.17-14.563,0-7.515,6.654-13.314,15.025-13.378a24.69,24.69,0,0,1,15.817,5.931L400.775,58.5c-3.891-3.162-7.313-4.613-10.215-4.613-3.232,0-5.6,1.711-5.666,4.677,0,2.9,2.5,4.087,7.909,6.192,8.105,3.162,14.563,5.272,14.563,14.3,0,10.279-9.03,14.5-16.609,14.5A23.721,23.721,0,0,1,373.69,86.1Z" transform="translate(-288.018 -45.569)" fill="#0679ab"/><path d="M439.66,86.1l5.6-6.851c3.492,3.954,7.972,5.868,11.666,5.868,4.48,0,6.654-2.041,6.654-4.943,0-3.428-2.44-4.677-8.105-6.654-7.117-2.44-14.17-5.666-14.17-14.563,0-7.515,6.654-13.314,15.025-13.378a24.69,24.69,0,0,1,15.817,5.931L466.745,58.5c-3.891-3.162-7.313-4.613-10.215-4.613-3.231,0-5.6,1.711-5.666,4.677,0,2.9,2.5,4.087,7.909,6.192,8.105,3.162,14.563,5.272,14.563,14.3,0,10.279-9.03,14.5-16.609,14.5A23.721,23.721,0,0,1,439.66,86.1Z" transform="translate(-318.926 -45.569)" fill="#0679ab"/><path d="M511.7,46.68h9.423V93.473H511.7Z" transform="translate(-352.677 -46.085)" fill="#0679ab"/><path d="M542.945,46.68h29.918v8.238H552.1V66.186h16.609v8.105H552.1V85.229h22.142v8.238h-31.3V46.68Z" transform="translate(-367.313 -46.085)" fill="#0679ab"/></g><path d="M66.978,14.17a45.2,45.2,0,0,0-45.2,45.2v45.2h9.679V60.054c-.005-.266-.021-.526-.021-.792s.016-.526.021-.792v-.085h0A35.823,35.823,0,1,1,67.265,95.09h-23.9v9.471H66.978a45.2,45.2,0,1,0,0-90.391" transform="translate(0)" fill="#0679ab"/><path d="M188.8,147.98a57.562,57.562,0,0,1-15.94,19.277H277.532a3.508,3.508,0,0,0,3.508-3.508V147.98Z" transform="translate(-70.782 -62.691)" fill="#e42027"/><g transform="translate(122.62 89.042)"><g transform="translate(22.785 0.967)"><path d="M261.7,163.977a2.681,2.681,0,0,1-.218,1.079,2.336,2.336,0,0,1-.664.856,3.231,3.231,0,0,1-1.121.574,5.437,5.437,0,0,1-1.589.207,4.6,4.6,0,0,1-2.562-.611,2.657,2.657,0,0,1-1.169-1.738l.951-.213a2.53,2.53,0,0,0,.287.707,1.884,1.884,0,0,0,.526.563,2.587,2.587,0,0,0,.819.372,4.558,4.558,0,0,0,1.153.133,4.977,4.977,0,0,0,1.042-.106,2.638,2.638,0,0,0,.834-.335,1.592,1.592,0,0,0,.553-.59,1.748,1.748,0,0,0,.2-.861,1.414,1.414,0,0,0-.255-.872,2,2,0,0,0-.664-.553,4.593,4.593,0,0,0-.925-.356c-.34-.09-.68-.181-1.015-.26l-.733-.191a6.156,6.156,0,0,1-.707-.244,4.716,4.716,0,0,1-.632-.324,2.038,2.038,0,0,1-.51-.441,1.938,1.938,0,0,1-.345-.606,2.337,2.337,0,0,1-.122-.8,2.444,2.444,0,0,1,.25-1.137,2.122,2.122,0,0,1,.7-.776A3.165,3.165,0,0,1,256.83,157a5.6,5.6,0,0,1,1.308-.144,6.007,6.007,0,0,1,1.376.138,3.011,3.011,0,0,1,.973.4,2.089,2.089,0,0,1,.648.664,3.148,3.148,0,0,1,.377.914l-.967.2a2.251,2.251,0,0,0-.26-.664,1.56,1.56,0,0,0-.468-.484,2.2,2.2,0,0,0-.707-.3,4.611,4.611,0,0,0-2.083.027,1.856,1.856,0,0,0-.717.361,1.419,1.419,0,0,0-.393.537,1.717,1.717,0,0,0-.122.664,1.308,1.308,0,0,0,.207.76,1.656,1.656,0,0,0,.558.5,3.51,3.51,0,0,0,.818.34c.308.09.638.181.983.26.266.069.532.138.8.213s.526.154.776.245a4.957,4.957,0,0,1,.7.33,2.278,2.278,0,0,1,.563.468,2.18,2.18,0,0,1,.383.648A3.087,3.087,0,0,1,261.7,163.977Z" transform="translate(-254.38 -156.86)" fill="#fff"/><path d="M274.291,162.5v4.183h-.967V162.5l-3.433-5.363h1.068l2.843,4.544,2.849-4.544h1.063Z" transform="translate(-261.647 -156.991)" fill="#fff"/><path d="M293.077,166.686l-2.6-4.087h-2.285v4.087h-.973V157.14h3.386a4.841,4.841,0,0,1,1.387.186,2.976,2.976,0,0,1,1.036.526,2.262,2.262,0,0,1,.648.834,2.724,2.724,0,0,1,.228,1.132,2.813,2.813,0,0,1-.143.882,2.43,2.43,0,0,1-1.2,1.419,3.282,3.282,0,0,1-1.116.351l2.774,4.215h-1.148Zm-.154-6.862a1.891,1.891,0,0,0-.165-.818,1.627,1.627,0,0,0-.478-.6,2.323,2.323,0,0,0-.755-.367,3.809,3.809,0,0,0-1-.122H288.2v3.906h2.376a3.141,3.141,0,0,0,1.058-.159,1.983,1.983,0,0,0,.728-.425,1.7,1.7,0,0,0,.425-.638A2.215,2.215,0,0,0,292.923,159.824Z" transform="translate(-269.766 -156.991)" fill="#fff"/><path d="M303.94,166.686V157.14h6.293v.808h-5.326v3.433h4.911v.787h-4.911v3.71h5.6v.808H303.94Z" transform="translate(-277.599 -156.991)" fill="#fff"/><path d="M327.064,166.676l-6.229-8.382c.011.191.016.388.027.59.005.175.005.361.011.563s.005.393.005.569v6.654h-.888v-9.546H321.1l6.282,8.435c-.005-.186-.011-.383-.027-.585-.011-.175-.021-.372-.021-.6s-.005-.446-.005-.675V157.12h.893v9.546h-1.159Z" transform="translate(-285.119 -156.982)" fill="#fff"/><path d="M340.37,166.686V157.14h.973v9.546Z" transform="translate(-294.667 -156.991)" fill="#fff"/><path d="M353.434,163.977a2.681,2.681,0,0,1-.218,1.079,2.336,2.336,0,0,1-.664.856,3.231,3.231,0,0,1-1.121.574,5.437,5.437,0,0,1-1.589.207,4.6,4.6,0,0,1-2.562-.611,2.676,2.676,0,0,1-1.169-1.738l.951-.213a2.531,2.531,0,0,0,.287.707,1.884,1.884,0,0,0,.526.563,2.587,2.587,0,0,0,.819.372,4.558,4.558,0,0,0,1.153.133,4.977,4.977,0,0,0,1.042-.106,2.638,2.638,0,0,0,.834-.335,1.592,1.592,0,0,0,.553-.59,1.748,1.748,0,0,0,.2-.861,1.413,1.413,0,0,0-.255-.872,2,2,0,0,0-.664-.553,4.593,4.593,0,0,0-.925-.356c-.34-.09-.68-.181-1.015-.26l-.733-.191a6.154,6.154,0,0,1-.707-.244,4.712,4.712,0,0,1-.632-.324,2.037,2.037,0,0,1-.51-.441,1.938,1.938,0,0,1-.345-.606,2.337,2.337,0,0,1-.122-.8,2.444,2.444,0,0,1,.25-1.137,2.122,2.122,0,0,1,.7-.776A3.165,3.165,0,0,1,348.56,157a5.6,5.6,0,0,1,1.308-.144,6.008,6.008,0,0,1,1.377.138,3.011,3.011,0,0,1,.973.4,2.089,2.089,0,0,1,.648.664,3.146,3.146,0,0,1,.377.914l-.967.2a2.252,2.252,0,0,0-.26-.664,1.561,1.561,0,0,0-.468-.484,2.2,2.2,0,0,0-.707-.3,4.611,4.611,0,0,0-2.083.027,1.894,1.894,0,0,0-.717.361,1.419,1.419,0,0,0-.393.537,1.719,1.719,0,0,0-.122.664,1.308,1.308,0,0,0,.207.76,1.656,1.656,0,0,0,.558.5,3.51,3.51,0,0,0,.818.34c.308.09.638.181.983.26.266.069.531.138.8.213s.526.154.776.245a4.958,4.958,0,0,1,.7.33,2.278,2.278,0,0,1,.563.468,2.178,2.178,0,0,1,.383.648A3.086,3.086,0,0,1,353.434,163.977Z" transform="translate(-297.356 -156.86)" fill="#fff"/></g><g transform="translate(0)"><path d="M218.717,163.731s-6.559-1.828-7.207,3.471c-.005,2.929,5.352,5.836,13.016,1.424.3.7.377.967.377.967s1.074-2.53,2.445-3.306c-1.1.3-2.849.617-4.193.845a1.434,1.434,0,0,1,.781.473s-5.405,3.471-9.413,2.153S212.615,162.9,218.717,163.731Z" transform="translate(-211.51 -158.969)" fill="#fff"/><path d="M227.561,170.442s6.559,1.828,7.207-3.471c.005-2.928-5.352-5.836-13.016-1.424-.3-.7-.377-.967-.377-.967s-1.074,2.53-2.445,3.306c1.1-.3,2.849-.617,4.193-.845a1.434,1.434,0,0,1-.781-.473s5.405-3.471,9.413-2.153S233.663,171.277,227.561,170.442Z" transform="translate(-214.986 -158.904)" fill="#fff"/><path d="M218.34,159.292a5.5,5.5,0,0,1,5.458-3.417c2.929.271,3.79,1.881,3.79,1.881a2.528,2.528,0,0,1,3.279,1.664c0-.914-.755-2.445-3.2-2.147-.834-2.073-3.928-2.636-5.916-1.961S218.367,157.087,218.34,159.292Z" transform="translate(-214.71 -155.041)" fill="#fff"/></g></g><path d="M84.18,102.319h0a25.9,25.9,0,0,1-25.9-25.9h0a25.9,25.9,0,0,1,25.9-25.9h0a25.9,25.9,0,0,1,25.9,25.9h0a25.9,25.9,0,0,1-25.9,25.9" transform="translate(-17.1 -17.03)" fill="#e42027"/><path d="M106.51,79.469h0c0-.361-.016-.718-.032-1.074a.477.477,0,0,1,.292-.468l2.4-.973a.483.483,0,0,0,.3-.5,23.258,23.258,0,0,0-.542-2.748.479.479,0,0,0-.468-.356l-2.594.021a.481.481,0,0,1-.452-.319,19.778,19.778,0,0,0-.824-1.988.476.476,0,0,1,.09-.547l1.844-1.818a.483.483,0,0,0,.08-.585,22.237,22.237,0,0,0-1.563-2.328.478.478,0,0,0-.569-.149l-2.392,1.01a.475.475,0,0,1-.537-.122,18.649,18.649,0,0,0-1.52-1.52.474.474,0,0,1-.122-.542l1.01-2.386a.478.478,0,0,0-.149-.569,22.241,22.241,0,0,0-2.328-1.563.484.484,0,0,0-.585.08l-1.818,1.844a.476.476,0,0,1-.547.09,19.784,19.784,0,0,0-1.988-.824.474.474,0,0,1-.319-.452l.016-2.594a.479.479,0,0,0-.356-.468,21.47,21.47,0,0,0-2.748-.542.479.479,0,0,0-.5.3l-.973,2.4a.481.481,0,0,1-.473.3c-.356-.021-.712-.032-1.074-.032h0c-.361,0-.718.011-1.074.032a.481.481,0,0,1-.473-.3l-.978-2.4a.483.483,0,0,0-.5-.3,23.258,23.258,0,0,0-2.748.542.479.479,0,0,0-.356.468l.021,2.594a.481.481,0,0,1-.319.452,19.784,19.784,0,0,0-1.988.824.476.476,0,0,1-.547-.09l-1.818-1.844a.483.483,0,0,0-.585-.08A22.242,22.242,0,0,0,73.371,61.5a.485.485,0,0,0-.149.569l1.01,2.386A.485.485,0,0,1,74.11,65a19.533,19.533,0,0,0-1.52,1.52.468.468,0,0,1-.537.122l-2.386-1.01a.462.462,0,0,0-.563.138A22.763,22.763,0,0,0,67.546,68.1a.483.483,0,0,0,.08.585L69.47,70.5a.486.486,0,0,1,.1.547,19.783,19.783,0,0,0-.824,1.988.474.474,0,0,1-.452.319L65.7,73.335a.483.483,0,0,0-.468.356,22.232,22.232,0,0,0-.542,2.748.479.479,0,0,0,.3.5l2.4.973a.474.474,0,0,1,.3.468c-.021.356-.037.712-.037,1.074h0c0,.361.016.718.037,1.074a.474.474,0,0,1-.3.468l-2.4.973a.483.483,0,0,0-.3.5,23.261,23.261,0,0,0,.542,2.748.483.483,0,0,0,.468.356l2.594-.021a.479.479,0,0,1,.452.324,19.784,19.784,0,0,0,.824,1.988.476.476,0,0,1-.09.547l-1.844,1.818a.483.483,0,0,0-.08.585,23.055,23.055,0,0,0,1.557,2.328.485.485,0,0,0,.569.149l2.392-1.01a.475.475,0,0,1,.537.122,18.65,18.65,0,0,0,1.52,1.52.474.474,0,0,1,.122.542l-1.01,2.386a.478.478,0,0,0,.149.569,22.813,22.813,0,0,0,2.328,1.563.484.484,0,0,0,.585-.08l1.818-1.844a.468.468,0,0,1,.547-.09,19.779,19.779,0,0,0,1.988.824.474.474,0,0,1,.319.452l-.021,2.594a.479.479,0,0,0,.356.468,22.436,22.436,0,0,0,2.748.547.479.479,0,0,0,.5-.3l.978-2.4a.481.481,0,0,1,.473-.3c.356.021.712.032,1.074.032h0c.361,0,.718-.011,1.074-.032a.485.485,0,0,1,.473.3l.973,2.4a.483.483,0,0,0,.5.3,22.238,22.238,0,0,0,2.748-.547.479.479,0,0,0,.356-.468L93.2,98.252a.481.481,0,0,1,.319-.452,19.78,19.78,0,0,0,1.988-.824.476.476,0,0,1,.547.09l1.818,1.844a.483.483,0,0,0,.585.08,22.241,22.241,0,0,0,2.328-1.563.478.478,0,0,0,.149-.569l-1.01-2.386a.485.485,0,0,1,.122-.542,19.537,19.537,0,0,0,1.52-1.52.468.468,0,0,1,.537-.122l2.392,1.01a.478.478,0,0,0,.569-.149,22.811,22.811,0,0,0,1.563-2.328.484.484,0,0,0-.08-.585L104.7,88.419a.476.476,0,0,1-.09-.547,19.782,19.782,0,0,0,.824-1.988.481.481,0,0,1,.452-.324l2.594.021a.479.479,0,0,0,.468-.356,21.292,21.292,0,0,0,.542-2.748.479.479,0,0,0-.3-.5l-2.4-.973a.462.462,0,0,1-.292-.468c.005-.345.016-.7.016-1.063" transform="translate(-20.1 -20.1)" fill="#fff"/><path d="M96.825,77.51h0a11.563,11.563,0,0,0-4.762,1.026,4.234,4.234,0,0,1,1.058.776,4.277,4.277,0,1,1-6.048,6.048A4.332,4.332,0,0,1,86.3,84.3a11.479,11.479,0,0,0-1.026,4.762h0a11.551,11.551,0,0,0,11.555,11.549h0a11.55,11.55,0,0,0,11.549-11.549h0A11.544,11.544,0,0,0,96.825,77.51Z" transform="translate(-29.745 -29.675)" fill="#e42027"/></g></svg>